<svg width="1000" height="1000" viewBox="0 0 1000 1000" fill="none" xmlns="http://www.w3.org/2000/svg">
<rect width="1000" height="1000" rx="256" fill="#160535"/>
<path d="M846.82 300L731.958 233.684L614.91 166.106L557.66 133.053L532.41 118.475C512.608 107.043 488.212 107.043 468.41 118.475L385.91 166.106L154 299.999M846.82 300L732.32 366.106L615.317 433.658M846.82 300V433.053V566.711V663.049C846.82 685.914 834.622 707.042 814.82 718.475L732.32 766.106L615.317 833.658L500.41 900M500.41 900L384.455 833.053L268.5 766.106L186 718.475C166.198 707.042 154 685.914 154 663.049V433.053V299.999M500.41 900V766.711V633.053M500.41 500L384.455 433.053L268.5 366.106L154 299.999M500.41 500C500.41 551.96 500.41 581.092 500.41 633.053M500.41 500L557.864 466.829L615.317 433.658M500.41 500L615.317 433.658M500.41 500V633.053" stroke="black" stroke-width="5"/>
<path d="M500.41 499.999V633.052L615.317 566.711V433.657L500.41 499.999Z" fill="#7C4DFF"/>
<path d="M500.41 633.052V766.711L615.317 700.369V566.711L500.41 633.052Z" fill="#7C4DFF"/>
<path d="M500.41 899.999L615.317 833.657V700.369L500.41 766.711V899.999Z" fill="#7C4DFF"/>
<path d="M615.317 566.711V700.369L732.32 632.818V499.159L615.317 566.711Z" fill="#7C4DFF"/>
<path d="M846.82 299.999L732.32 366.106V499.159L846.82 433.052V299.999Z" fill="#7C4DFF"/>
<path d="M732.32 766.106L814.82 718.474C834.622 707.042 846.82 685.914 846.82 663.049V566.711L732.32 632.818V766.106Z" fill="#7C4DFF"/>
<path d="M846.82 299.999L731.958 233.683M846.82 299.999L732.32 366.106M846.82 299.999V433.052M500.41 899.999L384.455 833.052M500.41 899.999L615.317 833.657M500.41 899.999V766.711M500.41 499.999L384.455 433.052M500.41 499.999C500.41 551.96 500.41 581.092 500.41 633.052M500.41 499.999L615.317 433.657M500.41 499.999V633.052M154 299.999L268.5 366.106M154 299.999L385.91 166.106M154 299.999V433.052M385 434C499.972 366.835 730.324 232.74 731.958 233.683M731.958 233.683L614.91 166.106M268.5 366.106L614.91 166.106M268.5 366.106V766.106M268.5 366.106L384.455 433.052M614.91 166.106L532.41 118.475C512.608 107.042 488.212 107.042 468.41 118.475L385.91 166.106M269.5 234L615.317 433.657M615.317 433.657L732.32 366.106M615.317 433.657V566.711M615.317 433.657V700.369M385.91 166.106L732.32 366.106M732.32 366.106V499.159M268.5 766.106L186 718.474C166.198 707.042 154 685.914 154 663.049V433.052M268.5 766.106L384.455 833.052M384.455 433.052V833.052M615.317 833.657L732.32 766.106M615.317 833.657V700.369M732.32 766.106L814.82 718.474C834.622 707.042 846.82 685.914 846.82 663.049V566.711M732.32 766.106V632.818M154.5 567L500.41 766.711M500.41 766.711V633.052M500.41 766.711L615.317 700.369M846.82 566.711V433.052M846.82 566.711L732.32 632.818M154 433.052L500.41 633.052M500.41 633.052L615.317 566.711M846.82 433.052L732.32 499.159M615.317 566.711V700.369M615.317 566.711L732.32 499.159M615.317 700.369L732.32 632.818M732.32 632.818V499.159" stroke="#7C4DFF" stroke-width="8"/>
</svg>
